TITLE ""
FILE "LR_black_phrase_B07.mp3" MP3
  TRACK 01 AUDIO
    TITLE "LR_black_phrase_B07_001"
    INDEX 01 00:00:00
  TRACK 02 AUDIO
    TITLE "LR_black_phrase_B07_002"
    INDEX 01 00:00:14
  TRACK 03 AUDIO
    TITLE "LR_black_phrase_B07_003"
    INDEX 01 00:01:43
  TRACK 04 AUDIO
    TITLE "LR_black_phrase_B07_004"
    INDEX 01 00:02:07
  TRACK 05 AUDIO
    TITLE "LR_black_phrase_B07_005"
    INDEX 01 00:05:51
  TRACK 06 AUDIO
    TITLE "LR_black_phrase_B07_006"
    INDEX 01 00:06:50
  TRACK 07 AUDIO
    TITLE "LR_black_phrase_B07_007"
    INDEX 01 00:09:33
  TRACK 08 AUDIO
    TITLE "LR_black_phrase_B07_008"
    INDEX 01 00:09:72
  TRACK 09 AUDIO
    TITLE "LR_black_phrase_B07_009"
    INDEX 01 00:12:57
  TRACK 10 AUDIO
    TITLE "LR_black_phrase_B07_010"
    INDEX 01 00:13:13
  TRACK 11 AUDIO
    TITLE "LR_black_phrase_B07_011"
    INDEX 01 00:15:73
  TRACK 12 AUDIO
    TITLE "LR_black_phrase_B07_012"
    INDEX 01 00:17:03
  TRACK 13 AUDIO
    TITLE "LR_black_phrase_B07_013"
    INDEX 01 00:17:75
  TRACK 14 AUDIO
    TITLE "LR_black_phrase_B07_014"
    INDEX 01 00:18:40
  TRACK 15 AUDIO
    TITLE "LR_black_phrase_B07_015"
    INDEX 01 00:19:51
  TRACK 16 AUDIO
    TITLE "LR_black_phrase_B07_016"
    INDEX 01 00:20:50
  TRACK 17 AUDIO
    TITLE "LR_black_phrase_B07_017"
    INDEX 01 00:22:59
  TRACK 18 AUDIO
    TITLE "LR_black_phrase_B07_018"
    INDEX 01 00:23:23
  TRACK 19 AUDIO
    TITLE "LR_black_phrase_B07_019"
    INDEX 01 00:25:42
  TRACK 20 AUDIO
    TITLE "LR_black_phrase_B07_020"
    INDEX 01 00:25:73
  TRACK 21 AUDIO
    TITLE "LR_black_phrase_B07_021"
    INDEX 01 00:28:16
  TRACK 22 AUDIO
    TITLE "LR_black_phrase_B07_022"
    INDEX 01 00:29:22
  TRACK 23 AUDIO
    TITLE "LR_black_phrase_B07_023"
    INDEX 01 00:30:53
  TRACK 24 AUDIO
    TITLE "LR_black_phrase_B07_024"
    INDEX 01 00:31:17
  TRACK 25 AUDIO
    TITLE "LR_black_phrase_B07_025"
    INDEX 01 00:32:32
  TRACK 26 AUDIO
    TITLE "LR_black_phrase_B07_026"
    INDEX 01 00:33:33
  TRACK 27 AUDIO
    TITLE "LR_black_phrase_B07_027"
    INDEX 01 00:35:11
  TRACK 28 AUDIO
    TITLE "LR_black_phrase_B07_028"
    INDEX 01 00:35:50
  TRACK 29 AUDIO
    TITLE "LR_black_phrase_B07_029"
    INDEX 01 00:38:07
  TRACK 30 AUDIO
    TITLE "LR_black_phrase_B07_030"
    INDEX 01 00:38:38
  TRACK 31 AUDIO
    TITLE "LR_black_phrase_B07_031"
    INDEX 01 00:40:69
  TRACK 32 AUDIO
    TITLE "LR_black_phrase_B07_032"
    INDEX 01 00:41:68
  TRACK 33 AUDIO
    TITLE "LR_black_phrase_B07_033"
    INDEX 01 00:43:16
  TRACK 34 AUDIO
    TITLE "LR_black_phrase_B07_034"
    INDEX 01 00:43:49
  TRACK 35 AUDIO
    TITLE "LR_black_phrase_B07_035"
    INDEX 01 00:46:61
  TRACK 36 AUDIO
    TITLE "LR_black_phrase_B07_036"
    INDEX 01 00:47:59
  TRACK 37 AUDIO
    TITLE "LR_black_phrase_B07_037"
    INDEX 01 00:50:12
  TRACK 38 AUDIO
    TITLE "LR_black_phrase_B07_038"
    INDEX 01 00:50:47
  TRACK 39 AUDIO
    TITLE "LR_black_phrase_B07_039"
    INDEX 01 00:52:70
  TRACK 40 AUDIO
    TITLE "LR_black_phrase_B07_040"
    INDEX 01 00:53:14
  TRACK 41 AUDIO
    TITLE "LR_black_phrase_B07_041"
    INDEX 01 00:55:39
  TRACK 42 AUDIO
    TITLE "LR_black_phrase_B07_042"
    INDEX 01 00:56:34
  TRACK 43 AUDIO
    TITLE "LR_black_phrase_B07_043"
    INDEX 01 00:57:40
  TRACK 44 AUDIO
    TITLE "LR_black_phrase_B07_044"
    INDEX 01 00:57:75
  TRACK 45 AUDIO
    TITLE "LR_black_phrase_B07_045"
    INDEX 01 01:00:32
  TRACK 46 AUDIO
    TITLE "LR_black_phrase_B07_046"
    INDEX 01 01:01:37
  TRACK 47 AUDIO
    TITLE "LR_black_phrase_B07_047"
    INDEX 01 01:03:66
  TRACK 48 AUDIO
    TITLE "LR_black_phrase_B07_048"
    INDEX 01 01:04:24
  TRACK 49 AUDIO
    TITLE "LR_black_phrase_B07_049"
    INDEX 01 01:06:31
  TRACK 50 AUDIO
    TITLE "LR_black_phrase_B07_050"
    INDEX 01 01:06:50
  TRACK 51 AUDIO
    TITLE "LR_black_phrase_B07_051"
    INDEX 01 01:08:57
  TRACK 52 AUDIO
    TITLE "LR_black_phrase_B07_052"
    INDEX 01 01:09:49
  TRACK 53 AUDIO
    TITLE "LR_black_phrase_B07_053"
    INDEX 01 01:10:74
  TRACK 54 AUDIO
    TITLE "LR_black_phrase_B07_054"
    INDEX 01 01:11:34
  TRACK 55 AUDIO
    TITLE "LR_black_phrase_B07_055"
    INDEX 01 01:12:57
  TRACK 56 AUDIO
    TITLE "LR_black_phrase_B07_056"
    INDEX 01 01:13:54
  TRACK 57 AUDIO
    TITLE "LR_black_phrase_B07_057"
    INDEX 01 01:16:13
  TRACK 58 AUDIO
    TITLE "LR_black_phrase_B07_058"
    INDEX 01 01:16:47
  TRACK 59 AUDIO
    TITLE "LR_black_phrase_B07_059"
    INDEX 01 01:18:48
  TRACK 60 AUDIO
    TITLE "LR_black_phrase_B07_060"
    INDEX 01 01:18:67
  TRACK 61 AUDIO
    TITLE "LR_black_phrase_B07_061"
    INDEX 01 01:20:68
  TRACK 62 AUDIO
    TITLE "LR_black_phrase_B07_062"
    INDEX 01 01:21:68
  TRACK 63 AUDIO
    TITLE "LR_black_phrase_B07_063"
    INDEX 01 01:23:06
  TRACK 64 AUDIO
    TITLE "LR_black_phrase_B07_064"
    INDEX 01 01:23:43
  TRACK 65 AUDIO
    TITLE "LR_black_phrase_B07_065"
    INDEX 01 01:25:58
  TRACK 66 AUDIO
    TITLE "LR_black_phrase_B07_066"
    INDEX 01 01:26:55
  TRACK 67 AUDIO
    TITLE "LR_black_phrase_B07_067"
    INDEX 01 01:28:24
  TRACK 68 AUDIO
    TITLE "LR_black_phrase_B07_068"
    INDEX 01 01:28:62
  TRACK 69 AUDIO
    TITLE "LR_black_phrase_B07_069"
    INDEX 01 01:30:51
  TRACK 70 AUDIO
    TITLE "LR_black_phrase_B07_070"
    INDEX 01 01:31:07
  TRACK 71 AUDIO
    TITLE "LR_black_phrase_B07_071"
    INDEX 01 01:32:69
  TRACK 72 AUDIO
    TITLE "LR_black_phrase_B07_072"
    INDEX 01 01:34:02
  TRACK 73 AUDIO
    TITLE "LR_black_phrase_B07_073"
    INDEX 01 01:35:13
  TRACK 74 AUDIO
    TITLE "LR_black_phrase_B07_074"
    INDEX 01 01:35:52
  TRACK 75 AUDIO
    TITLE "LR_black_phrase_B07_075"
    INDEX 01 01:37:02
  TRACK 76 AUDIO
    TITLE "LR_black_phrase_B07_076"
    INDEX 01 01:37:74
  TRACK 77 AUDIO
    TITLE "LR_black_phrase_B07_077"
    INDEX 01 01:40:41
  TRACK 78 AUDIO
    TITLE "LR_black_phrase_B07_078"
    INDEX 01 01:41:06
  TRACK 79 AUDIO
    TITLE "LR_black_phrase_B07_079"
    INDEX 01 01:43:52
  TRACK 80 AUDIO
    TITLE "LR_black_phrase_B07_080"
    INDEX 01 01:44:06
  TRACK 81 AUDIO
    TITLE "LR_black_phrase_B07_081"
    INDEX 01 01:46:52
  TRACK 82 AUDIO
    TITLE "LR_black_phrase_B07_082"
    INDEX 01 01:47:55
  TRACK 83 AUDIO
    TITLE "LR_black_phrase_B07_083"
    INDEX 01 01:48:72
  TRACK 84 AUDIO
    TITLE "LR_black_phrase_B07_084"
    INDEX 01 01:49:38
  TRACK 85 AUDIO
    TITLE "LR_black_phrase_B07_085"
    INDEX 01 01:51:75
  TRACK 86 AUDIO
    TITLE "LR_black_phrase_B07_086"
    INDEX 01 01:52:74
  TRACK 87 AUDIO
    TITLE "LR_black_phrase_B07_087"
    INDEX 01 01:54:57
  TRACK 88 AUDIO
    TITLE "LR_black_phrase_B07_088"
    INDEX 01 01:55:21
  TRACK 89 AUDIO
    TITLE "LR_black_phrase_B07_089"
    INDEX 01 01:57:38
  TRACK 90 AUDIO
    TITLE "LR_black_phrase_B07_090"
    INDEX 01 01:57:67
  TRACK 91 AUDIO
    TITLE "LR_black_phrase_B07_091"
    INDEX 01 02:00:09
  TRACK 92 AUDIO
    TITLE "LR_black_phrase_B07_092"
    INDEX 01 02:01:06
  TRACK 93 AUDIO
    TITLE "LR_black_phrase_B07_093"
    INDEX 01 02:02:29
  TRACK 94 AUDIO
    TITLE "LR_black_phrase_B07_094"
    INDEX 01 02:02:66
  TRACK 95 AUDIO
    TITLE "LR_black_phrase_B07_095"
    INDEX 01 02:04:26
  TRACK 96 AUDIO
    TITLE "LR_black_phrase_B07_096"
    INDEX 01 02:05:24
  TRACK 97 AUDIO
    TITLE "LR_black_phrase_B07_097"
    INDEX 01 02:07:17
  TRACK 98 AUDIO
    TITLE "LR_black_phrase_B07_098"
    INDEX 01 02:07:50
  TRACK 99 AUDIO
    TITLE "LR_black_phrase_B07_099"
    INDEX 01 02:09:63
  TRACK 100 AUDIO
    TITLE "LR_black_phrase_B07_100"
    INDEX 01 02:10:07
  TRACK 101 AUDIO
    TITLE "LR_black_phrase_B07_101"
    INDEX 01 02:12:22
  TRACK 102 AUDIO
    TITLE "LR_black_phrase_B07_102"
    INDEX 01 02:13:15
  TRACK 103 AUDIO
    TITLE "LR_black_phrase_B07_103"
    INDEX 01 02:14:40
  TRACK 104 AUDIO
    TITLE "LR_black_phrase_B07_104"
    INDEX 01 02:14:74
  TRACK 105 AUDIO
    TITLE "LR_black_phrase_B07_105"
    INDEX 01 02:16:29
  TRACK 106 AUDIO
    TITLE "LR_black_phrase_B07_106"
    INDEX 01 02:17:27
  TRACK 107 AUDIO
    TITLE "LR_black_phrase_B07_107"
    INDEX 01 02:19:32
  TRACK 108 AUDIO
    TITLE "LR_black_phrase_B07_108"
    INDEX 01 02:19:67
  TRACK 109 AUDIO
    TITLE "LR_black_phrase_B07_109"
    INDEX 01 02:22:08
  TRACK 110 AUDIO
    TITLE "LR_black_phrase_B07_110"
    INDEX 01 02:22:32
  TRACK 111 AUDIO
    TITLE "LR_black_phrase_B07_111"
    INDEX 01 02:24:48
  TRACK 112 AUDIO
    TITLE "LR_black_phrase_B07_112"
    INDEX 01 02:25:48
  TRACK 113 AUDIO
    TITLE "LR_black_phrase_B07_113"
    INDEX 01 02:27:02
  TRACK 114 AUDIO
    TITLE "LR_black_phrase_B07_114"
    INDEX 01 02:27:43
  TRACK 115 AUDIO
    TITLE "LR_black_phrase_B07_115"
    INDEX 01 02:28:60
  TRACK 116 AUDIO
    TITLE "LR_black_phrase_B07_116"
    INDEX 01 02:29:59
  TRACK 117 AUDIO
    TITLE "LR_black_phrase_B07_117"
    INDEX 01 02:31:31
  TRACK 118 AUDIO
    TITLE "LR_black_phrase_B07_118"
    INDEX 01 02:31:64
  TRACK 119 AUDIO
    TITLE "LR_black_phrase_B07_119"
    INDEX 01 02:33:73
  TRACK 120 AUDIO
    TITLE "LR_black_phrase_B07_120"
    INDEX 01 02:34:23
  TRACK 121 AUDIO
    TITLE "LR_black_phrase_B07_121"
    INDEX 01 02:36:30
  TRACK 122 AUDIO
    TITLE "LR_black_phrase_B07_122"
    INDEX 01 02:37:33
  TRACK 123 AUDIO
    TITLE "LR_black_phrase_B07_123"
    INDEX 01 02:38:47
  TRACK 124 AUDIO
    TITLE "LR_black_phrase_B07_124"
    INDEX 01 02:39:11
  TRACK 125 AUDIO
    TITLE "LR_black_phrase_B07_125"
    INDEX 01 02:40:30
  TRACK 126 AUDIO
    TITLE "LR_black_phrase_B07_126"
    INDEX 01 02:41:29
  TRACK 127 AUDIO
    TITLE "LR_black_phrase_B07_127"
    INDEX 01 02:44:08
  TRACK 128 AUDIO
    TITLE "LR_black_phrase_B07_128"
    INDEX 01 02:44:47
  TRACK 129 AUDIO
    TITLE "LR_black_phrase_B07_129"
    INDEX 01 02:46:40
  TRACK 130 AUDIO
    TITLE "LR_black_phrase_B07_130"
    INDEX 01 02:46:70
  TRACK 131 AUDIO
    TITLE "LR_black_phrase_B07_131"
    INDEX 01 02:48:63
  TRACK 132 AUDIO
    TITLE "LR_black_phrase_B07_132"
    INDEX 01 02:49:66
  TRACK 133 AUDIO
    TITLE "LR_black_phrase_B07_133"
    INDEX 01 02:51:26
  TRACK 134 AUDIO
    TITLE "LR_black_phrase_B07_134"
    INDEX 01 02:51:65
  TRACK 135 AUDIO
    TITLE "LR_black_phrase_B07_135"
    INDEX 01 02:53:42
  TRACK 136 AUDIO
    TITLE "LR_black_phrase_B07_136"
    INDEX 01 02:54:42
  TRACK 137 AUDIO
    TITLE "LR_black_phrase_B07_137"
    INDEX 01 02:57:62
  TRACK 138 AUDIO
    TITLE "LR_black_phrase_B07_138"
    INDEX 01 02:58:24
  TRACK 139 AUDIO
    TITLE "LR_black_phrase_B07_139"
    INDEX 01 03:00:68
  TRACK 140 AUDIO
    TITLE "LR_black_phrase_B07_140"
    INDEX 01 03:01:22
  TRACK 141 AUDIO
    TITLE "LR_black_phrase_B07_141"
    INDEX 01 03:03:64
  TRACK 142 AUDIO
    TITLE "LR_black_phrase_B07_142"
    INDEX 01 03:04:70
  TRACK 143 AUDIO
    TITLE "LR_black_phrase_B07_143"
    INDEX 01 03:06:12
  TRACK 144 AUDIO
    TITLE "LR_black_phrase_B07_144"
    INDEX 01 03:06:49
  TRACK 145 AUDIO
    TITLE "LR_black_phrase_B07_145"
    INDEX 01 03:09:47
  TRACK 146 AUDIO
    TITLE "LR_black_phrase_B07_146"
    INDEX 01 03:10:45
  TRACK 147 AUDIO
    TITLE "LR_black_phrase_B07_147"
    INDEX 01 03:13:16
  TRACK 148 AUDIO
    TITLE "LR_black_phrase_B07_148"
    INDEX 01 03:13:55
  TRACK 149 AUDIO
    TITLE "LR_black_phrase_B07_149"
    INDEX 01 03:15:67
  TRACK 150 AUDIO
    TITLE "LR_black_phrase_B07_150"
    INDEX 01 03:16:22
  TRACK 151 AUDIO
    TITLE "LR_black_phrase_B07_151"
    INDEX 01 03:18:34
  TRACK 152 AUDIO
    TITLE "LR_black_phrase_B07_152"
    INDEX 01 03:19:34
  TRACK 153 AUDIO
    TITLE "LR_black_phrase_B07_153"
    INDEX 01 03:20:55
  TRACK 154 AUDIO
    TITLE "LR_black_phrase_B07_154"
    INDEX 01 03:21:15
  TRACK 155 AUDIO
    TITLE "LR_black_phrase_B07_155"
    INDEX 01 03:22:20
  TRACK 156 AUDIO
    TITLE "LR_black_phrase_B07_156"
    INDEX 01 03:23:20
  TRACK 157 AUDIO
    TITLE "LR_black_phrase_B07_157"
    INDEX 01 03:25:05
  TRACK 158 AUDIO
    TITLE "LR_black_phrase_B07_158"
    INDEX 01 03:25:40
  TRACK 159 AUDIO
    TITLE "LR_black_phrase_B07_159"
    INDEX 01 03:27:75
  TRACK 160 AUDIO
    TITLE "LR_black_phrase_B07_160"
    INDEX 01 03:28:21
  TRACK 161 AUDIO
    TITLE "LR_black_phrase_B07_161"
    INDEX 01 03:30:55
  TRACK 162 AUDIO
    TITLE "LR_black_phrase_B07_162"
    INDEX 01 03:31:49
  TRACK 163 AUDIO
    TITLE "LR_black_phrase_B07_163"
    INDEX 01 03:32:70
  TRACK 164 AUDIO
    TITLE "LR_black_phrase_B07_164"
    INDEX 01 03:33:32
  TRACK 165 AUDIO
    TITLE "LR_black_phrase_B07_165"
    INDEX 01 03:36:26
  TRACK 166 AUDIO
    TITLE "LR_black_phrase_B07_166"
    INDEX 01 03:37:26
  TRACK 167 AUDIO
    TITLE "LR_black_phrase_B07_167"
    INDEX 01 03:39:31
  TRACK 168 AUDIO
    TITLE "LR_black_phrase_B07_168"
    INDEX 01 03:39:62
  TRACK 169 AUDIO
    TITLE "LR_black_phrase_B07_169"
    INDEX 01 03:41:75
  TRACK 170 AUDIO
    TITLE "LR_black_phrase_B07_170"
    INDEX 01 03:42:19
  TRACK 171 AUDIO
    TITLE "LR_black_phrase_B07_171"
    INDEX 01 03:44:32
  TRACK 172 AUDIO
    TITLE "LR_black_phrase_B07_172"
    INDEX 01 03:45:29
  TRACK 173 AUDIO
    TITLE "LR_black_phrase_B07_173"
    INDEX 01 03:46:62
  TRACK 174 AUDIO
    TITLE "LR_black_phrase_B07_174"
    INDEX 01 03:47:22
  TRACK 175 AUDIO
    TITLE "LR_black_phrase_B07_175"
    INDEX 01 03:51:01
  TRACK 176 AUDIO
    TITLE "LR_black_phrase_B07_176"
    INDEX 01 03:52:02
  TRACK 177 AUDIO
    TITLE "LR_black_phrase_B07_177"
    INDEX 01 03:54:07
  TRACK 178 AUDIO
    TITLE "LR_black_phrase_B07_178"
    INDEX 01 03:54:42
  TRACK 179 AUDIO
    TITLE "LR_black_phrase_B07_179"
    INDEX 01 03:56:41
  TRACK 180 AUDIO
    TITLE "LR_black_phrase_B07_180"
    INDEX 01 03:56:62
  TRACK 181 AUDIO
    TITLE "LR_black_phrase_B07_181"
    INDEX 01 03:58:61
  TRACK 182 AUDIO
    TITLE "LR_black_phrase_B07_182"
    INDEX 01 03:59:63
  TRACK 183 AUDIO
    TITLE "LR_black_phrase_B07_183"
    INDEX 01 04:01:09
  TRACK 184 AUDIO
    TITLE "LR_black_phrase_B07_184"
    INDEX 01 04:01:50
  TRACK 185 AUDIO
    TITLE "LR_black_phrase_B07_185"
    INDEX 01 04:03:51
  TRACK 186 AUDIO
    TITLE "LR_black_phrase_B07_186"
    INDEX 01 04:04:50
  TRACK 187 AUDIO
    TITLE "LR_black_phrase_B07_187"
    INDEX 01 04:06:57
  TRACK 188 AUDIO
    TITLE "LR_black_phrase_B07_188"
    INDEX 01 04:07:21
  TRACK 189 AUDIO
    TITLE "LR_black_phrase_B07_189"
    INDEX 01 04:09:42
  TRACK 190 AUDIO
    TITLE "LR_black_phrase_B07_190"
    INDEX 01 04:09:71
  TRACK 191 AUDIO
    TITLE "LR_black_phrase_B07_191"
    INDEX 01 04:12:16
  TRACK 192 AUDIO
    TITLE "LR_black_phrase_B07_192"
    INDEX 01 04:13:22
  TRACK 193 AUDIO
    TITLE "LR_black_phrase_B07_193"
    INDEX 01 04:14:43
  TRACK 194 AUDIO
    TITLE "LR_black_phrase_B07_194"
    INDEX 01 04:15:07
  TRACK 195 AUDIO
    TITLE "LR_black_phrase_B07_195"
    INDEX 01 04:17:31
  TRACK 196 AUDIO
    TITLE "LR_black_phrase_B07_196"
    INDEX 01 04:18:33
  TRACK 197 AUDIO
    TITLE "LR_black_phrase_B07_197"
    INDEX 01 04:19:54
  TRACK 198 AUDIO
    TITLE "LR_black_phrase_B07_198"
    INDEX 01 04:20:18
  TRACK 199 AUDIO
    TITLE "LR_black_phrase_B07_199"
    INDEX 01 04:22:03
  TRACK 200 AUDIO
    TITLE "LR_black_phrase_B07_200"
    INDEX 01 04:22:32
  TRACK 201 AUDIO
    TITLE "LR_black_phrase_B07_201"
    INDEX 01 04:24:18
  TRACK 202 AUDIO
    TITLE "LR_black_phrase_B07_202"
    INDEX 01 04:25:21
  TRACK 203 AUDIO
    TITLE "LR_black_phrase_B07_203"
    INDEX 01 04:26:32
  TRACK 204 AUDIO
    TITLE "LR_black_phrase_B07_204"
    INDEX 01 04:26:71
  TRACK 205 AUDIO
    TITLE "LR_black_phrase_B07_205"
    INDEX 01 04:28:04
  TRACK 206 AUDIO
    TITLE "LR_black_phrase_B07_206"
    INDEX 01 04:29:05
  TRACK 207 AUDIO
    TITLE "LR_black_phrase_B07_207"
    INDEX 01 04:30:63
  TRACK 208 AUDIO
    TITLE "LR_black_phrase_B07_208"
    INDEX 01 04:31:29
  TRACK 209 AUDIO
    TITLE "LR_black_phrase_B07_209"
    INDEX 01 04:33:22
  TRACK 210 AUDIO
    TITLE "LR_black_phrase_B07_210"
    INDEX 01 04:33:50
  TRACK 211 AUDIO
    TITLE "LR_black_phrase_B07_211"
    INDEX 01 04:35:43
  TRACK 212 AUDIO
    TITLE "LR_black_phrase_B07_212"
    INDEX 01 04:36:40
  TRACK 213 AUDIO
    TITLE "LR_black_phrase_B07_213"
    INDEX 01 04:37:57
  TRACK 214 AUDIO
    TITLE "LR_black_phrase_B07_214"
    INDEX 01 04:38:20
  TRACK 215 AUDIO
    TITLE "LR_black_phrase_B07_215"
    INDEX 01 04:40:64
  TRACK 216 AUDIO
    TITLE "LR_black_phrase_B07_216"
    INDEX 01 04:41:65
  TRACK 217 AUDIO
    TITLE "LR_black_phrase_B07_217"
    INDEX 01 04:43:66
  TRACK 218 AUDIO
    TITLE "LR_black_phrase_B07_218"
    INDEX 01 04:44:24
  TRACK 219 AUDIO
    TITLE "LR_black_phrase_B07_219"
    INDEX 01 04:46:33
  TRACK 220 AUDIO
    TITLE "LR_black_phrase_B07_220"
    INDEX 01 04:46:60
  TRACK 221 AUDIO
    TITLE "LR_black_phrase_B07_221"
    INDEX 01 04:48:69
  TRACK 222 AUDIO
    TITLE "LR_black_phrase_B07_222"
    INDEX 01 04:49:70
  TRACK 223 AUDIO
    TITLE "LR_black_phrase_B07_223"
    INDEX 01 04:51:15
  TRACK 224 AUDIO
    TITLE "LR_black_phrase_B07_224"
    INDEX 01 04:51:50
  TRACK 225 AUDIO
    TITLE "LR_black_phrase_B07_225"
    INDEX 01 04:52:71
  TRACK 226 AUDIO
    TITLE "LR_black_phrase_B07_226"
    INDEX 01 04:53:70
  TRACK 227 AUDIO
    TITLE "LR_black_phrase_B07_227"
    INDEX 01 04:56:43
  TRACK 228 AUDIO
    TITLE "LR_black_phrase_B07_228"
    INDEX 01 04:57:05
  TRACK 229 AUDIO
    TITLE "LR_black_phrase_B07_229"
    INDEX 01 04:59:65
  TRACK 230 AUDIO
    TITLE "LR_black_phrase_B07_230"
    INDEX 01 05:00:10
  TRACK 231 AUDIO
    TITLE "LR_black_phrase_B07_231"
    INDEX 01 05:02:73
  TRACK 232 AUDIO
    TITLE "LR_black_phrase_B07_232"
    INDEX 01 05:03:69
  TRACK 233 AUDIO
    TITLE "LR_black_phrase_B07_233"
    INDEX 01 05:05:09
  TRACK 234 AUDIO
    TITLE "LR_black_phrase_B07_234"
    INDEX 01 05:05:42
  TRACK 235 AUDIO
    TITLE "LR_black_phrase_B07_235"
    INDEX 01 05:06:71
  TRACK 236 AUDIO
    TITLE "LR_black_phrase_B07_236"
    INDEX 01 05:07:70
  TRACK 237 AUDIO
    TITLE "LR_black_phrase_B07_237"
    INDEX 01 05:09:57
  TRACK 238 AUDIO
    TITLE "LR_black_phrase_B07_238"
    INDEX 01 05:10:16
  TRACK 239 AUDIO
    TITLE "LR_black_phrase_B07_239"
    INDEX 01 05:12:26
  TRACK 240 AUDIO
    TITLE "LR_black_phrase_B07_240"
    INDEX 01 05:12:48
  TRACK 241 AUDIO
    TITLE "LR_black_phrase_B07_241"
    INDEX 01 05:14:57
  TRACK 242 AUDIO
    TITLE "LR_black_phrase_B07_242"
    INDEX 01 05:15:56
  TRACK 243 AUDIO
    TITLE "LR_black_phrase_B07_243"
    INDEX 01 05:17:10
  TRACK 244 AUDIO
    TITLE "LR_black_phrase_B07_244"
    INDEX 01 05:17:51
  TRACK 245 AUDIO
    TITLE "LR_black_phrase_B07_245"
    INDEX 01 05:18:56
  TRACK 246 AUDIO
    TITLE "LR_black_phrase_B07_246"
    INDEX 01 05:19:54
  TRACK 247 AUDIO
    TITLE "LR_black_phrase_B07_247"
    INDEX 01 05:21:65
  TRACK 248 AUDIO
    TITLE "LR_black_phrase_B07_248"
    INDEX 01 05:22:27
  TRACK 249 AUDIO
    TITLE "LR_black_phrase_B07_249"
    INDEX 01 05:24:55
  TRACK 250 AUDIO
    TITLE "LR_black_phrase_B07_250"
    INDEX 01 05:25:10
  TRACK 251 AUDIO
    TITLE "LR_black_phrase_B07_251"
    INDEX 01 05:27:38
  TRACK 252 AUDIO
    TITLE "LR_black_phrase_B07_252"
    INDEX 01 05:28:41
  TRACK 253 AUDIO
    TITLE "LR_black_phrase_B07_253"
    INDEX 01 05:29:62
  TRACK 254 AUDIO
    TITLE "LR_black_phrase_B07_254"
    INDEX 01 05:30:26
  TRACK 255 AUDIO
    TITLE "LR_black_phrase_B07_255"
    INDEX 01 05:32:31
  TRACK 256 AUDIO
    TITLE "LR_black_phrase_B07_256"
    INDEX 01 05:33:31
  TRACK 257 AUDIO
    TITLE "LR_black_phrase_B07_257"
    INDEX 01 05:34:65
  TRACK 258 AUDIO
    TITLE "LR_black_phrase_B07_258"
    INDEX 01 05:35:29
  TRACK 259 AUDIO
    TITLE "LR_black_phrase_B07_259"
    INDEX 01 05:37:34
  TRACK 260 AUDIO
    TITLE "LR_black_phrase_B07_260"
    INDEX 01 05:37:64
  TRACK 261 AUDIO
    TITLE "LR_black_phrase_B07_261"
    INDEX 01 05:39:66
  TRACK 262 AUDIO
    TITLE "LR_black_phrase_B07_262"
    INDEX 01 05:40:70
  TRACK 263 AUDIO
    TITLE "LR_black_phrase_B07_263"
    INDEX 01 05:42:10
  TRACK 264 AUDIO
    TITLE "LR_black_phrase_B07_264"
    INDEX 01 05:42:47
  TRACK 265 AUDIO
    TITLE "LR_black_phrase_B07_265"
    INDEX 01 05:44:73
  TRACK 266 AUDIO
    TITLE "LR_black_phrase_B07_266"
    INDEX 01 05:45:75
  TRACK 267 AUDIO
    TITLE "LR_black_phrase_B07_267"
    INDEX 01 05:47:46
  TRACK 268 AUDIO
    TITLE "LR_black_phrase_B07_268"
    INDEX 01 05:48:07
  TRACK 269 AUDIO
    TITLE "LR_black_phrase_B07_269"
    INDEX 01 05:49:65
  TRACK 270 AUDIO
    TITLE "LR_black_phrase_B07_270"
    INDEX 01 05:50:15
  TRACK 271 AUDIO
    TITLE "LR_black_phrase_B07_271"
    INDEX 01 05:52:01
  TRACK 272 AUDIO
    TITLE "LR_black_phrase_B07_272"
    INDEX 01 05:52:73
  TRACK 273 AUDIO
    TITLE "LR_black_phrase_B07_273"
    INDEX 01 05:54:05
  TRACK 274 AUDIO
    TITLE "LR_black_phrase_B07_274"
    INDEX 01 05:54:43
  TRACK 275 AUDIO
    TITLE "LR_black_phrase_B07_275"
    INDEX 01 05:55:52
  TRACK 276 AUDIO
    TITLE "LR_black_phrase_B07_276"
    INDEX 01 05:56:53
  TRACK 277 AUDIO
    TITLE "LR_black_phrase_B07_277"
    INDEX 01 05:58:19
  TRACK 278 AUDIO
    TITLE "LR_black_phrase_B07_278"
    INDEX 01 05:58:52
  TRACK 279 AUDIO
    TITLE "LR_black_phrase_B07_279"
    INDEX 01 06:00:39
  TRACK 280 AUDIO
    TITLE "LR_black_phrase_B07_280"
    INDEX 01 06:00:65
  TRACK 281 AUDIO
    TITLE "LR_black_phrase_B07_281"
    INDEX 01 06:02:52
  TRACK 282 AUDIO
    TITLE "LR_black_phrase_B07_282"
    INDEX 01 06:03:49
  TRACK 283 AUDIO
    TITLE "LR_black_phrase_B07_283"
    INDEX 01 06:04:61
  TRACK 284 AUDIO
    TITLE "LR_black_phrase_B07_284"
    INDEX 01 06:05:21
  TRACK 285 AUDIO
    TITLE "LR_black_phrase_B07_285"
    INDEX 01 06:08:68
  TRACK 286 AUDIO
    TITLE "LR_black_phrase_B07_286"
    INDEX 01 06:09:70
  TRACK 287 AUDIO
    TITLE "LR_black_phrase_B07_287"
    INDEX 01 06:11:45
  TRACK 288 AUDIO
    TITLE "LR_black_phrase_B07_288"
    INDEX 01 06:12:05
  TRACK 289 AUDIO
    TITLE "LR_black_phrase_B07_289"
    INDEX 01 06:14:37
  TRACK 290 AUDIO
    TITLE "LR_black_phrase_B07_290"
    INDEX 01 06:14:63
  TRACK 291 AUDIO
    TITLE "LR_black_phrase_B07_291"
    INDEX 01 06:17:20
  TRACK 292 AUDIO
    TITLE "LR_black_phrase_B07_292"
    INDEX 01 06:18:19
  TRACK 293 AUDIO
    TITLE "LR_black_phrase_B07_293"
    INDEX 01 06:19:46
  TRACK 294 AUDIO
    TITLE "LR_black_phrase_B07_294"
    INDEX 01 06:20:05
  TRACK 295 AUDIO
    TITLE "LR_black_phrase_B07_295"
    INDEX 01 06:22:33
  TRACK 296 AUDIO
    TITLE "LR_black_phrase_B07_296"
    INDEX 01 06:23:34
  TRACK 297 AUDIO
    TITLE "LR_black_phrase_B07_297"
    INDEX 01 06:25:39
  TRACK 298 AUDIO
    TITLE "LR_black_phrase_B07_298"
    INDEX 01 06:25:74
  TRACK 299 AUDIO
    TITLE "LR_black_phrase_B07_299"
    INDEX 01 06:27:69
  TRACK 300 AUDIO
    TITLE "LR_black_phrase_B07_300"
    INDEX 01 06:28:14
  TRACK 301 AUDIO
    TITLE "LR_black_phrase_B07_301"
    INDEX 01 06:30:11
